<?xml version="1.0" encoding="utf-8"?>
<!-- Generator: Adobe Illustrator 23.1.0, SVG Export Plug-In . SVG Version: 6.00 Build 0)  -->
<svg version="1.1" id="Layer_1" xmlns="http://www.w3.org/2000/svg" xmlns:xlink="http://www.w3.org/1999/xlink" x="0px" y="0px"
	 viewBox="0 0 1000 1000" style="enable-background:new 0 0 1000 1000;" xml:space="preserve">
<style type="text/css">
	.st0{fill:#FFFFFF;}
	.st1{fill-rule:evenodd;clip-rule:evenodd;fill:#FFFFFF;}
	.st2{fill-rule:evenodd;clip-rule:evenodd;}
	.st3{fill-rule:evenodd;clip-rule:evenodd;fill:#8DC63F;}
</style>
<g>
	<g>
		<g>
			<g>
				<path class="st0" d="M679.4,727.5c-26.2,0-41,19.8-41,43.3c0,23.8,14.8,43.5,41,43.5c26.2,0,41-19.7,41-43.5
					C720.4,747.2,705.6,727.5,679.4,727.5 M679.4,800.1c-16.7,0-24.5-15-24.5-29.2c0-14.1,7.9-29.1,24.5-29.1
					c16.8,0,24.5,14.9,24.5,29.1C703.9,785.1,696.1,800.1,679.4,800.1"/>
				<path class="st0" d="M614.2,736.2c-5.8-5.5-13.9-8.7-22.2-8.7c-25,0-39.3,18.9-39.3,41.5c0,23.9,12.3,42.3,39.3,42.3
					c8.7,0,16.4-3.3,22.2-8.9v0.4c0,15.1-4.9,25.5-22.2,25.5c-9.2,0-18.1-3-19.9-12.5l-0.5-2.7h-16.2l0.3,3.5
					c1.6,18.3,19.1,26,36.4,26c27.5,0,38.5-14.9,38.6-39.8v-73h-16.5V736.2z M592,796.9c-15.8,0-22.9-13.3-22.9-26.9
					c0-13.7,6.3-28.2,22.9-28.2c16.1,0,22.2,15,22.2,28.2C614.2,782.9,607.3,796.9,592,796.9"/>
				<path class="st0" d="M512.7,727.5c-8.1,0-16.5,3-22.4,8.3v-6.1h-16.5v82.5h16.5v-47.5c0.3-12.5,7.5-22.8,21.6-22.8
					c13.4,0,16.7,8.1,16.7,19.8v50.6h16.6V760C545.3,738.7,535.7,727.5,512.7,727.5"/>
				<path class="st0" d="M428.7,727.5c-19.6,0-34.5,8.6-35.6,28.6l-0.1,3.4h16.6v-3.1c0.3-10.5,7.7-14.5,17.9-14.5
					c9.5,0,17.4,1.8,17.4,12.3c0,6.6-3.5,6.5-9.5,7.2c-19.2,2.1-45.7,2.8-45.7,27.6c0,17,13.3,25.5,30.1,25.5
					c11.6,0,19.3-3,25.8-9.5l-0.1,7.4l15.9-0.1l-0.1-57C461.4,735.2,447.7,727.5,428.7,727.5 M444.9,779.4
					c0.2,13.1-11.6,20.6-24.3,20.6c-7.2,0-14.4-4.3-14.4-11.8c0-2,0.5-4,1.8-5.6c4.3-5.3,17.4-6.7,24-7.6c2.8-0.3,5.7-0.7,8.4-1.2
					c1.5-0.2,3-0.6,4.5-0.9V779.4z"/>
				<path class="st1" d="M281.4,736.3c5.8-5.9,13.7-8.9,23.1-8.9c9.6,0,18.4,3.8,23.3,11.1c5.8-7.2,14.9-11.1,24.8-11.1
					c20.1,0,29.7,10.9,29.7,29.9l0.1,54.8h-16.6v-54.3c0-10.8-3.6-16.1-15.3-16.1c-14.9,0-18.2,12.1-18.2,24.1v46.3h-16.4v-54.8
					c0-8.8-3.1-15.6-13.3-15.6c-15.5,0-20.2,11.8-20.3,24.7v45.7h-16.5v-82.5h15.7V736.3z"/>
				<rect x="408.6" y="635.7" class="st2" width="8.9" height="12.2"/>
				<path d="M450.8,653.3c-16.8,0-26.1,12.7-26.1,27.8c0,15.1,9.2,27.7,26.1,27.7c16.8,0,26-12.6,26-27.7
					C476.8,666,467.6,653.3,450.8,653.3 M450.8,701.3c-11.7,0-17.2-10.2-17.2-20.2c0-10,5.6-20.2,17.2-20.2
					c11.7,0,17.2,10.3,17.2,20.2C468,691.1,462.5,701.3,450.8,701.3"/>
				<rect x="408.6" y="652.9" width="8.9" height="55.9"/>
				<path d="M389.8,661.1c-3.8-5.1-10.4-7.8-17.2-7.8c-16.7,0-24.8,13-24.8,27.8c0,14.7,8.1,27.7,24.8,27.7c6.4,0,13.7-3.1,17.7-8.2
					v7.6h8.4v-72.7h-8.8V661.1z M372.6,701.3c-11.6,0-16-10.6-16-20.2c0-9.6,4.4-20.2,16-20.2c12.4,0,17.2,9.8,17.2,20.2
					C389.8,691.6,385,701.3,372.6,701.3"/>
				<path d="M273.4,662.1V653H265v55.8h8.9v-30.6c0-10,7.6-17.3,18.2-16.8l1.3,0.1V653h-1.1C284.2,652.7,277.5,656,273.4,662.1"/>
				<path d="M319.2,653.3c-12.3,0-21.8,5.3-22.4,17.9l-0.1,1.3h8.9v-1.2c0.2-7.5,5.5-10.5,12.8-10.5c6.9,0,12.5,1.6,12.5,9.1
					c0,4.9-2.7,5.2-7.1,5.7c-12.2,1.4-29.3,1.6-29.3,17.3c0,10.7,8.4,15.8,18.9,15.8c8.5,0,13.5-2.4,18.1-8l0,7.4h8.6l-0.1-37.5
					C339.9,658,331.4,653.3,319.2,653.3 M330.9,686.7c0.2,9.2-8.1,14.6-17,14.6c-5.3,0-10.5-3.3-10.5-8.8c0-8,11.7-8.7,17.8-9.6
					c1.9-0.3,3.8-0.5,5.6-0.8c1.3-0.2,2.9-0.5,4.1-1.1V686.7z"/>
			</g>
		</g>
		<g>
			<path class="st1" d="M432.5,277.1c-16.9,2.8-24.1,11.3-16.2,18.5c7.9,7.2,21.5-1.5,24.4-6.8C443.6,283.4,449.4,274.3,432.5,277.1
				"/>
			<path class="st1" d="M383,317.6c-25,12-43.9,47.8-49.1,95.9c-5.2,48.1,1.4,85,35,122.8c33.5,37.7,57.6,22.6,43.2,9
				c-14.4-13.6-41-17.4-32.2-48.3c8.4-29.3-9.2-77,19.1-110C429.2,345.5,408.1,305.6,383,317.6"/>
			<path class="st1" d="M437.9,589.9c-11.8,17.1,11,30.9,22.1,22.2C480.5,593.4,450.9,571.2,437.9,589.9"/>
			<path class="st1" d="M498.7,698.9c-3.9-22.7,2.4-49.7-22.1-63.1c-13.8-7.6-12.8-17.8-7.5-22.4c11.7-10.1,25.3,5,33.5,13.1
				c14.9,14.8,71.3,53.5,123.1,15.8c67.7-49.3,55.1-203.3,13.6-251.9c-33-38.7-61.8-54.9-70.8-77.5c-9-22.6-17.1-44.6-53.5-26.1
				c-36.4,18.6-59,6.8-57-7.6c2.1-14.4,24.8-18.5,52.3-21.5c153-10.7,258.3,140.4,187.7,315.9C671,640.3,608.7,690,541.8,708.5
				C521.9,715.3,501.5,715.5,498.7,698.9"/>
			<path class="st2" d="M408.2,275.1c-7.2,2.4-33.5-31.7-27.6-41.9c5.8-10.2,19.7-1.8,23.6,10.4c4,12.1-0.8,12.7,3.1,15.6
				C411.2,262.1,415.3,272.7,408.2,275.1"/>
			<path class="st3" d="M421.5,184.5c19.2-19.7,40.5-29.5,49.1-40c8.6-10.5,20.7-4.4-3.8,40.9c-24.6,45.3-21.9,74.3-44.1,63.4
				C406.5,240.7,400.7,205.9,421.5,184.5 M367.4,263.1c-30.1-12.9-75.2-26-107.1,0.1c-31.9,26.1,30.7,38,77.3,32.8
				C384.3,290.8,397.6,276,367.4,263.1"/>
		</g>
	</g>
</g>
</svg>
